<?xml version="1.0" standalone="no"?>
<!DOCTYPE svg PUBLIC "-//W3C//DTD SVG 20010904//EN"
 "http://www.w3.org/TR/2001/REC-SVG-20010904/DTD/svg10.dtd">
<svg version="1.0" xmlns="http://www.w3.org/2000/svg"
 width="62.000000pt" height="73.000000pt" viewBox="0 0 62.000000 73.000000"
 preserveAspectRatio="xMidYMid meet">

<g transform="translate(0.000000,73.000000) scale(0.100000,-0.100000)"
fill="#000000" stroke="none">
<path d="M289 664 c-18 -21 -1 -47 37 -55 16 -3 67 -28 114 -56 76 -44 85 -52
88 -81 2 -18 0 -32 -5 -32 -4 0 -35 16 -68 36 -33 20 -100 59 -148 86 -85 48
-89 49 -108 32 -13 -12 -19 -30 -19 -60 0 -50 -11 -42 213 -170 141 -81 159
-100 117 -126 -18 -12 -29 -48 -14 -48 4 0 22 9 40 21 28 17 34 27 34 55 0 39
11 31 -207 156 -130 75 -143 85 -143 110 0 15 5 28 11 28 9 0 178 -95 307
-172 l32 -20 0 75 0 75 -102 60 c-57 33 -111 70 -120 81 -21 25 -41 27 -59 5z"/>
<path d="M103 540 c-28 -17 -33 -25 -33 -59 l0 -39 173 -99 c162 -93 172 -100
172 -128 0 -20 -5 -29 -13 -27 -8 1 -83 43 -167 92 -84 50 -156 90 -159 90 -3
0 -6 -33 -6 -72 l0 -73 96 -54 c53 -30 106 -65 119 -79 29 -31 59 -26 63 10 3
23 -1 28 -25 33 -32 7 -50 16 -151 74 -58 34 -72 47 -72 66 0 13 4 26 8 29 4
2 74 -34 154 -80 126 -73 150 -84 167 -74 17 9 21 20 21 63 l0 52 -167 96
c-92 52 -171 103 -177 113 -9 14 -6 21 17 37 15 12 27 27 27 35 0 19 -9 18
-47 -6z"/>
</g>
</svg>
